<svg width="62" height="12" viewBox="0 0 62 12" fill="none" xmlns="http://www.w3.org/2000/svg">
<g clip-path="url(#clip0)">
<path d="M8.86658 6.91101L61.9966 6.91101L61.9966 4.91101L8.86658 4.91101L8.86658 6.91101Z" fill="#5F5F5F"/>
<path d="M0.13 6.25L8.42 11.94C8.52 12.02 8.62 12.02 8.72 11.97C8.82 11.92 8.87 11.82 8.87 11.72V0.28C8.87 0.18 8.82 0.08 8.72 0.03C8.67 0 8.64 0 8.59 0C8.54 0 8.46 0.03 8.44 0.05L0.15 5.77C0.05 5.82 0 5.89 0 6C0 6.1 0.05 6.17 0.13 6.25Z" fill="#5F5F5F"/>
</g>
<defs>
<clipPath id="clip0">
<rect width="62" height="12" fill="white"/>
</clipPath>
</defs>
</svg>
