<svg width="50" height="50" viewBox="0 0 50 50" fill="none" xmlns="http://www.w3.org/2000/svg">
<path d="M41.8 14.3H46.1C47.7 14.3 48.9 15.6 48.9 17.1V46.1C48.9 47.7 47.6 48.9 46.1 48.9H3.8C2.3 49 1 47.7 1 46.2V17.2C1 15.6 2.3 14.4 3.8 14.4H28.7" stroke="white" stroke-width="2" stroke-linecap="round" stroke-linejoin="round"/>
<path d="M25.6 19.7H17.1H9.6C7.6 19.7 6 20.9 6 22.4V40.9C6 42.4 7.6 43.6 9.6 43.6H40.6C42.6 43.6 44.1 42.4 44.1 40.9V22.4C44.1 20.9 42.5 19.7 40.6 19.7H36.9" stroke="white" stroke-width="2" stroke-linecap="round" stroke-linejoin="round"/>
<path d="M25.4 18.9L23.7 20.5V26.3H29.5L31 24.8" stroke="white" stroke-width="2" stroke-linecap="round" stroke-linejoin="round"/>
<path d="M30.9999 24.8L48.9999 6.8L43.1999 1L25.3999 18.9" stroke="white" stroke-width="2" stroke-linecap="round" stroke-linejoin="round"/>
<path d="M25.6001 19.6L30.4001 24.4" stroke="white" stroke-width="2" stroke-linecap="round" stroke-linejoin="round"/>
<path d="M23.3 26.7L22.3 27.7" stroke="white" stroke-width="2" stroke-linecap="round" stroke-linejoin="round"/>
</svg>
