<svg width="21" height="44" viewBox="0 0 21 44" fill="none" xmlns="http://www.w3.org/2000/svg">
<path d="M10.5799 12.75C4.83991 12.75 0.159912 17.42 0.159912 23.16V33.59C0.159912 39.33 4.83991 44 10.5799 44C16.3199 44 20.9999 39.33 20.9999 33.59V23.16C20.9899 17.42 16.3199 12.75 10.5799 12.75ZM19.8399 33.59C19.8399 38.69 15.6899 42.84 10.5799 42.84C5.46991 42.84 1.31991 38.69 1.31991 33.59V23.16C1.31991 18.06 5.46991 13.91 10.5799 13.91C15.6899 13.91 19.8399 18.06 19.8399 23.16V33.59Z" fill="white"/>
<path d="M10.58 16.23C10.26 16.23 10 16.49 10 16.81V22.05C10 22.37 10.26 22.63 10.58 22.63C10.9 22.63 11.16 22.37 11.16 22.05V16.8C11.16 16.48 10.9 16.23 10.58 16.23Z" fill="white"/>
<path d="M11.16 4.42004H10V8.50004H11.16V4.42004Z" fill="white"/>
<path d="M10.5 0.950024L8.24 4.24002C8.21 4.28002 8.21 4.32002 8.23 4.36002C8.25 4.40002 8.29 4.42002 8.33 4.42002H12.87C12.91 4.42002 12.95 4.40002 12.97 4.36002C12.98 4.34002 12.98 4.33002 12.98 4.31002C12.98 4.29002 12.97 4.26002 12.96 4.25002L10.69 0.960024C10.67 0.920024 10.64 0.900024 10.6 0.900024C10.56 0.900024 10.53 0.920024 10.5 0.950024Z" fill="white"/>
</svg>
