<svg width="48" height="48" viewBox="0 0 48 48" fill="none" xmlns="http://www.w3.org/2000/svg">
<path d="M47 10.38V13.55" stroke="white"/>
<path d="M47 11.59V44.08C47 44.4635 46.9245 44.8432 46.7777 45.1974C46.631 45.5517 46.4159 45.8736 46.1448 46.1448C45.8736 46.4159 45.5517 46.631 45.1974 46.7777C44.8432 46.9245 44.4635 47 44.08 47H3.92C3.53654 47 3.15684 46.9245 2.80256 46.7777C2.44829 46.631 2.1264 46.4159 1.85525 46.1448C1.5841 45.8736 1.36902 45.5517 1.22227 45.1974C1.07553 44.8432 1 44.4635 1 44.08V3.92C1 3.14557 1.30764 2.40285 1.85525 1.85525C2.40285 1.30764 3.14557 1 3.92 1H44.08C44.4635 1 44.8432 1.07553 45.1974 1.22227C45.5517 1.36902 45.8736 1.5841 46.1448 1.85525C46.4159 2.1264 46.631 2.44829 46.7777 2.80256C46.9245 3.15684 47 3.53654 47 3.92V13.55" stroke="white" stroke-width="2" stroke-miterlimit="10"/>
<path d="M1.62988 10.38H46.7699" stroke="white" stroke-width="2" stroke-miterlimit="10"/>
<path d="M6.33008 5.75V5.77" stroke="white" stroke-width="3" stroke-linecap="round" stroke-linejoin="round"/>
<path d="M10.75 5.75V5.77" stroke="white" stroke-width="3" stroke-linecap="round" stroke-linejoin="round"/>
<path d="M15.1599 5.75V5.77" stroke="white" stroke-width="3" stroke-linecap="round" stroke-linejoin="round"/>
<path d="M16.83 18.71L7.70996 27.83L16.83 36.96L19.94 33.85L13.93 27.83L19.94 21.82L16.83 18.71Z" stroke="white" stroke-width="2" stroke-linecap="round" stroke-linejoin="round"/>
<path d="M31.1701 18.71L28.0601 21.82L34.0701 27.83L28.0601 33.85L31.1701 36.96L40.2901 27.83L31.1701 18.71Z" stroke="white" stroke-width="2" stroke-linecap="round" stroke-linejoin="round"/>
</svg>
